<?xml version="1.0" standalone="no"?>
<!DOCTYPE svg PUBLIC "-//W3C//DTD SVG 20010904//EN"
 "http://www.w3.org/TR/2001/REC-SVG-20010904/DTD/svg10.dtd">
<svg version="1.0" xmlns="http://www.w3.org/2000/svg"
 width="300.000000pt" height="169.000000pt" viewBox="0 0 300.000000 169.000000"
 preserveAspectRatio="xMidYMid meet">
<metadata>
Created by potrace 1.10, written by Peter Selinger 2001-2011
</metadata>
<g transform="translate(0.000000,169.000000) scale(0.100000,-0.100000)"
fill="#000000" stroke="none">
<path d="M1605 1269 c-45 -13 -127 -80 -149 -120 -18 -34 -19 -42 -6 -136 7
-56 11 -110 8 -121 -4 -13 0 -23 9 -26 15 -6 9 -45 -8 -56 -4 -3 -13 -17 -19
-30 -9 -22 -10 -21 -7 15 2 22 6 46 8 54 7 24 -17 23 -28 -1 -11 -25 -11 -34
6 -95 7 -26 22 -50 40 -62 21 -15 35 -41 55 -105 19 -59 34 -87 47 -91 10 -3
32 -23 48 -44 17 -21 48 -50 70 -65 36 -25 46 -28 88 -21 42 6 57 16 112 71
35 35 66 64 68 64 2 0 3 -15 3 -32 0 -42 10 -78 21 -78 4 0 13 18 19 40 l11
41 37 -39 c33 -34 42 -38 80 -36 23 1 48 -3 55 -10 7 -6 41 -10 82 -10 39 1
75 -2 80 -6 6 -4 21 -8 35 -9 39 -1 59 -6 72 -19 7 -7 20 -12 30 -12 10 0 18
-4 18 -10 0 -5 11 -12 25 -16 14 -3 25 -11 25 -17 0 -6 3 -7 6 -4 7 7 79 -32
130 -70 17 -13 37 -23 44 -23 6 0 21 -12 32 -26 14 -17 24 -22 31 -15 12 12
79 -20 122 -59 33 -30 66 -42 85 -30 14 9 -60 57 -171 111 -45 22 -94 48 -108
58 -14 10 -51 32 -81 48 -30 17 -86 48 -125 70 -81 45 -134 59 -236 62 -40 1
-81 7 -90 12 -10 5 -42 9 -71 9 -50 0 -54 2 -68 33 -8 17 -28 39 -45 47 -16 8
-32 16 -33 17 -8 4 51 139 66 150 9 8 11 13 4 13 -17 0 -15 50 3 56 17 7 21
54 4 54 -6 0 -9 6 -6 14 3 8 1 17 -6 19 -9 3 -9 10 -2 23 6 11 10 78 10 149 0
122 -1 132 -24 162 -35 46 -90 82 -152 99 -59 15 -207 17 -254 3z m220 -29 c8
-7 33 -13 54 -13 27 0 41 -5 51 -20 10 -17 10 -23 -6 -34 -22 -16 -39 -16 -66
-2 -14 8 -23 8 -31 0 -17 -17 -24 -13 -31 14 -4 16 -11 22 -21 18 -14 -5 -13
-7 1 -18 13 -9 14 -14 5 -19 -7 -5 -18 0 -26 10 -16 22 -21 19 -30 -19 -7 -25
-5 -27 23 -27 17 0 32 5 34 11 3 9 13 9 41 0 20 -7 50 -10 65 -6 33 7 74 -20
96 -64 16 -30 33 -298 22 -354 -4 -19 -17 -50 -29 -68 -12 -19 -28 -54 -36
-78 -15 -51 -104 -153 -127 -144 -9 3 -14 -2 -14 -16 0 -16 -6 -21 -24 -21
-36 0 -116 45 -149 83 -42 49 -87 114 -87 127 0 6 -9 29 -19 51 -11 21 -22 57
-26 79 -4 25 -11 38 -17 33 -6 -3 -8 -2 -5 4 5 8 28 164 30 198 0 6 -3 25 -7
43 -7 28 -4 36 22 60 16 15 31 36 33 45 4 17 5 17 28 1 23 -17 23 -18 5 -26
-18 -7 32 -3 83 8 27 5 52 44 29 44 -8 0 -27 -5 -41 -12 -19 -9 -34 -8 -64 2
-38 12 -41 11 -64 -14 -27 -29 -57 -35 -57 -11 0 16 83 105 97 105 16 0 63 25
63 33 0 5 4 6 9 2 5 -3 12 -1 15 3 8 13 154 6 171 -8z m-349 -504 c3 -8 4 -23
2 -32 -3 -17 -4 -17 -20 0 -9 9 -15 23 -12 31 8 19 23 19 30 1z"/>
<path d="M1568 923 c-27 -7 -31 -33 -5 -34 55 -2 132 -11 136 -15 3 -3 -5 -7
-17 -11 -28 -7 -29 -29 -1 -36 28 -7 51 2 45 19 -3 7 -1 16 4 19 18 11 -3 35
-39 44 -53 13 -104 19 -123 14z"/>
<path d="M1865 913 c-69 -8 -71 -10 -71 -52 1 -22 7 -46 14 -53 9 -9 12 -9 12
1 0 14 28 40 43 41 4 0 7 -7 7 -15 0 -8 9 -15 20 -15 11 0 20 5 20 10 0 6 5
10 10 10 18 0 10 -17 -12 -28 -23 -11 -23 -11 3 -11 15 -1 29 6 33 14 3 8 13
15 22 15 8 0 14 5 12 12 -3 8 -28 14 -64 15 -77 4 -84 5 -84 15 0 7 101 13
138 9 16 -2 15 4 -4 23 -15 15 -35 17 -99 9z"/>
<path d="M1540 849 c0 -7 12 -10 30 -7 18 3 35 -1 42 -9 8 -10 14 -10 24 -2 8
6 11 15 8 20 -8 13 -104 11 -104 -2z"/>
<path d="M1672 740 c-6 -11 -12 -28 -12 -37 1 -16 2 -16 12 2 6 11 16 23 22
27 7 5 8 10 1 17 -7 7 -14 4 -23 -9z"/>
<path d="M1685 671 c-3 -5 -1 -13 5 -16 15 -9 -7 -35 -30 -35 -18 0 -43 -24
-53 -52 -5 -13 -1 -18 13 -18 11 0 20 5 20 11 0 7 9 9 21 6 14 -4 29 2 44 17
34 34 53 38 74 17 23 -23 109 -53 116 -41 8 13 -11 46 -30 53 -9 4 -19 -2 -26
-14 -6 -11 -13 -19 -15 -16 -10 9 -12 67 -3 72 16 10 10 25 -10 25 -10 0 -24
-7 -31 -15 -7 -8 -20 -15 -30 -15 -10 0 -23 7 -30 15 -14 17 -26 19 -35 6z"/>
<path d="M1720 510 c0 -17 7 -20 41 -20 34 0 39 3 30 13 -6 8 -8 17 -4 20 3 4
-10 7 -30 7 -30 0 -37 -4 -37 -20z"/>
<path d="M2040 848 c1 -7 7 -26 15 -43 l13 -30 1 43 c1 31 -3 42 -14 42 -8 0
-15 -6 -15 -12z"/>
<path d="M1512 470 c-21 -13 -35 -31 -39 -50 -4 -23 -16 -36 -45 -51 -35 -18
-45 -19 -95 -9 -80 17 -183 16 -215 -1 -92 -49 -257 -161 -297 -203 -25 -26
-55 -58 -67 -70 -11 -11 -42 -34 -70 -51 -42 -25 -46 -30 -27 -33 13 -2 37 7
56 22 42 32 45 32 39 1 -7 -41 11 -28 36 24 13 27 38 67 57 89 36 41 134 112
155 112 7 0 28 14 47 30 18 17 40 30 48 30 8 0 15 7 15 15 0 8 5 15 11 15 7 0
10 -15 7 -40 -2 -28 0 -40 9 -40 7 0 13 8 13 19 0 35 45 53 132 52 45 0 83 -2
85 -4 2 -3 -7 -17 -20 -33 -23 -28 -47 -84 -47 -110 0 -24 18 -15 24 12 4 15
29 48 57 75 27 26 49 51 49 56 0 5 14 19 30 31 17 13 30 29 30 37 0 8 5 15 10
15 6 0 10 -4 10 -9 0 -14 50 -71 62 -71 5 0 0 14 -12 30 -17 24 -21 42 -18 80
1 28 3 50 3 50 0 0 -15 -9 -33 -20z"/>
<path d="M2020 329 c-62 -17 -62 -17 -50 -39 9 -17 4 -23 -47 -49 -32 -15 -78
-32 -103 -36 -47 -7 -90 -29 -90 -45 0 -12 29 -9 50 5 16 11 86 31 138 41 22
5 32 12 32 25 0 20 24 26 35 9 12 -20 25 1 14 21 -14 27 -7 32 43 35 43 2 61
19 37 35 -16 10 -13 10 -59 -2z"/>
<path d="M1474 305 c-4 -8 0 -22 7 -31 11 -14 10 -19 -10 -35 -24 -19 -15 -24
26 -13 13 4 20 11 17 19 -6 14 24 35 48 35 7 0 37 -15 66 -34 28 -19 52 -33
52 -30 0 3 8 0 18 -5 20 -11 62 -4 62 9 0 5 -29 18 -65 30 -36 12 -65 26 -65
31 0 5 5 9 11 9 5 0 7 5 4 10 -9 15 -25 12 -25 -5 0 -19 -19 -20 -26 -2 -3 8
-17 14 -32 14 -15 0 -40 3 -55 7 -20 5 -29 2 -33 -9z"/>
<path d="M1893 306 c-4 -7 -27 -23 -50 -35 -46 -23 -63 -41 -38 -41 8 0 18 7
21 15 4 8 16 15 28 15 18 0 76 42 76 55 0 11 -30 4 -37 -9z"/>
<path d="M2024 257 c-8 -22 -1 -30 21 -25 14 3 14 5 1 23 -14 19 -15 19 -22 2z"/>
<path d="M1075 155 c-4 -33 -14 -80 -21 -105 -12 -40 -12 -61 1 -49 8 8 37
189 32 202 -2 7 -8 -15 -12 -48z"/>
</g>
</svg>
