<svg id="Layer_1" data-name="Layer 1" xmlns="http://www.w3.org/2000/svg" viewBox="0 0 187.49 52.39"><defs><style>.cls-1{fill:#333;}.cls-2{fill:#348af7;}.cls-3,.cls-4{fill:none;stroke:#348af7;stroke-linecap:round;stroke-linejoin:round;}.cls-3{stroke-width:1.93px;}.cls-4{stroke-width:3.08px;}</style></defs><path class="cls-1" d="M71.14,60.66a1,1,0,0,0-.17.19A8.84,8.84,0,0,1,69.12,63a9.93,9.93,0,0,1-4.47,2,10.41,10.41,0,0,1-3.05.1,10.29,10.29,0,0,1-5.13-2,7.87,7.87,0,0,1-3.14-5.43,8.15,8.15,0,0,1,.78-4.88,7.57,7.57,0,0,1,3-3.06,12.48,12.48,0,0,1,4-1.42,19.36,19.36,0,0,1,4.43-.25c1.33,0,2.65.2,4,.31h.31a5.26,5.26,0,0,0-1-4,3.47,3.47,0,0,0-2-1.1,10.56,10.56,0,0,0-3.27-.12c-.81.06-1.61.12-2.41.23-1.41.2-2.81.44-4.25.66l-1.24-4.83c.45-.13.9-.3,1.36-.4,1.49-.33,3-.66,4.47-.93.87-.16,1.76-.22,2.65-.31a16,16,0,0,1,1.69-.1c.81,0,1.63.09,2.44.16a10.76,10.76,0,0,1,2.74.61,7.91,7.91,0,0,1,3.73,2.6,7.19,7.19,0,0,1,1.42,3.22,17.87,17.87,0,0,1,.22,2.74c0,3.55,0,7.09,0,10.64,0,.62.27.93.89.92s1.5-.06,2.24-.1h.33v5.55c-.7.19-1.41.42-2.13.56a11.53,11.53,0,0,1-2.18.23,5.39,5.39,0,0,1-2.92-.76,3,3,0,0,1-1.41-2.52c0-.22,0-.43,0-.64Zm-1.26-6.2h0V53.11c0-.16,0-.25-.22-.27-1.2-.12-2.39-.29-3.59-.37a10.64,10.64,0,0,0-3.55.37,4.15,4.15,0,0,0-2.27,1.43,3.16,3.16,0,0,0-.59,2.09,3.34,3.34,0,0,0,1.59,2.82,5.23,5.23,0,0,0,3.64.72,6.86,6.86,0,0,0,3.33-1.34,3.78,3.78,0,0,0,1.56-2.25A14.13,14.13,0,0,0,69.88,54.46Z" transform="translate(-6.25 -23.8)"/><path class="cls-1" d="M168.38,72.5q.59-3,1.16-6.07c0-.21.13-.23.3-.21.89.13,1.77.28,2.66.36a7.87,7.87,0,0,0,1.68,0,1.62,1.62,0,0,0,1.2-.94c.13-.25.23-.51.36-.75a.87.87,0,0,0,0-.77q-1.34-3.42-2.69-6.84l-2.52-6.48c-.64-1.62-1.29-3.24-1.92-4.87l-2.88-7.41c0-.15-.12-.3-.2-.49h7.05a.33.33,0,0,1,.37.27c.87,2.6,1.76,5.19,2.64,7.79l1.94,5.69,1.8,5.27a1,1,0,0,0,.19.23c.07-.08.18-.14.22-.23L182,50.73l2.5-7.08q.89-2.51,1.78-5c.21-.61.22-.6.84-.6h6.67c-.21.5-.39,1-.58,1.46-.51,1.27-1,2.53-1.54,3.8-.44,1.09-.89,2.17-1.33,3.26q-1,2.59-2.08,5.19t-2.09,5.17c-.74,1.85-1.48,3.72-2.24,5.57s-1.56,3.88-2.41,5.78a10.27,10.27,0,0,1-2.39,3.41A6.3,6.3,0,0,1,176,73.2a13.46,13.46,0,0,1-3.75.07A20.16,20.16,0,0,1,168.38,72.5Z" transform="translate(-6.25 -23.8)"/><path class="cls-1" d="M137.55,38h6.82c.23,0,.31.06.38.29.43,1.55.89,3.09,1.34,4.63.57,2,1.14,4,1.72,6l1.53,5.24c.23.81.46,1.63.7,2.44a1,1,0,0,0,.18.24,1.28,1.28,0,0,0,.15-.25c.29-.93.57-1.87.86-2.81.44-1.47.88-3,1.33-4.43q.78-2.6,1.58-5.19L155.7,39c.07-.23.15-.46.21-.69s.15-.29.38-.29h6.87c-.15.43-.29.83-.44,1.23q-1.14,3.16-2.3,6.33l-1.78,4.92L156,57.9c-.8,2.19-1.6,4.37-2.39,6.56-.05.13-.1.19-.25.19h-6.5Q142.19,51.36,137.55,38Z" transform="translate(-6.25 -23.8)"/><path class="cls-1" d="M109.45,38.27l.92,4.22a3,3,0,0,0,.22-.25,16.17,16.17,0,0,1,1.32-1.84,6.86,6.86,0,0,1,3.78-2A15.37,15.37,0,0,1,119.2,38h.31v.35q0,3.27,0,6.54c0,.26-.07.33-.33.32a13.75,13.75,0,0,0-2.94.17,6.43,6.43,0,0,0-3.67,1.87,5.88,5.88,0,0,0-1.44,3,16,16,0,0,0-.23,2.49c0,3.85,0,7.71,0,11.56v.33h-6.69c-.26,0-.35-.06-.35-.34q0-12.84,0-25.7c0-.25,0-.34.31-.34Z" transform="translate(-6.25 -23.8)"/><path class="cls-1" d="M91,64.63H84V38.27h5.21c.27,0,.36.08.41.32.25,1.21.52,2.42.79,3.62,0,.07.07.13.1.2s.14-.1.17-.16a6.9,6.9,0,0,1,2.58-2.88,8,8,0,0,1,2.68-1A17.21,17.21,0,0,1,99.56,38a65.5,65.5,0,0,1,0,7.16c-.16,0-.33,0-.5,0a11.68,11.68,0,0,0-3,.22,7,7,0,0,0-2.64,1.11,5.77,5.77,0,0,0-2.16,3.3,11.8,11.8,0,0,0-.34,2.9V64.63Z" transform="translate(-6.25 -23.8)"/><path class="cls-1" d="M133.5,38.05c0,.23,0,.43,0,.63V64.29c0,.35,0,.35-.37.35h-6.49V44.38c0-.23,0-.36-.29-.44-.87-.29-1.72-.62-2.59-.92a.33.33,0,0,1-.26-.37c0-1.44,0-2.87,0-4.31,0-.09,0-.18,0-.29Z" transform="translate(-6.25 -23.8)"/><path class="cls-1" d="M129.56,26.63a4,4,0,0,1,4,3.92,3.89,3.89,0,0,1-4,3.88,3.75,3.75,0,0,1-3.78-3.79A3.84,3.84,0,0,1,129.56,26.63Z" transform="translate(-6.25 -23.8)"/><g id="Location_Pin_2" data-name="Location Pin 2"><path class="cls-2" d="M26.29,23.8A20.11,20.11,0,0,0,6.25,44c0,16.39,20,32.22,20,32.22s20-15.83,20-32.22A20.11,20.11,0,0,0,26.29,23.8ZM37.54,44.48c-.66,14-16.29,9.78-17.19,9.17-2.63-1.78-5-4.42-5.14-9.74C15,36.15,20.06,32.7,26.52,32.85,34.11,33,37.82,38.54,37.54,44.48Z" transform="translate(-6.25 -23.8)"/></g><path class="cls-3" d="M28.62,46.12,26.37,45l-1.16-6.13" transform="translate(-6.25 -23.8)"/><circle class="cls-4" cx="20.03" cy="20.11" r="11.98"/></svg>