<?xml version="1.0" standalone="no"?>
<!DOCTYPE svg PUBLIC "-//W3C//DTD SVG 20010904//EN"
 "http://www.w3.org/TR/2001/REC-SVG-20010904/DTD/svg10.dtd">
 <svg classname="raw_logo"
      width="70%"
      height="60%"
      viewbox="0 0 440 305"
      fill="grey"
      xmlns="http://www.w3.org/2000/svg">

<g transform="translate(0.000000,300.000000) scale(0.100000,-0.100000)"
fill="#000000" stroke="none">
<path fill="grey" d="M836 2118 c4 -7 24 -33 44 -58 20 -25 40 -50 43 -57 6 -9 -147 -737
-169 -805 -5 -17 5 -18 115 -18 117 0 121 1 126 23 35 157 75 353 75 370 0 13
4 17 9 11 5 -5 20 -76 33 -159 14 -82 29 -149 34 -148 5 2 50 35 99 74 67 54
102 90 136 144 43 66 49 85 88 261 23 104 44 198 47 210 3 12 -3 30 -14 44
l-19 23 -104 -152 -104 -152 -40 200 -39 201 -184 0 c-144 0 -182 -3 -176 -12z
m327 -45 c3 -5 19 -77 36 -160 17 -84 36 -162 43 -173 22 -34 59 -25 101 24
20 25 37 48 37 51 0 10 63 85 71 85 7 0 3 -52 -7 -80 -3 -8 -14 -55 -24 -105
-23 -113 -32 -136 -80 -210 -42 -64 -142 -150 -164 -142 -8 3 -20 45 -31 103
-14 76 -23 103 -43 123 l-25 25 -22 -26 c-21 -25 -37 -81 -71 -248 -10 -47
-22 -91 -27 -97 -13 -18 -147 -18 -147 0 0 7 14 76 31 153 17 76 39 180 49
229 10 50 32 151 48 227 l30 136 -19 42 c-11 23 -19 44 -19 46 0 8 229 4 233
-3z"/>
<path fill="white" d="M1460 2121 c0 -6 4 -12 9 -15 4 -3 27 -29 49 -59 l41 -53 -89 -403
c-50 -222 -90 -406 -90 -407 0 -2 53 -4 118 -4 l118 0 49 226 48 225 -71 72
c-40 40 -72 75 -72 78 0 3 40 3 88 1 l88 -4 33 153 c19 85 36 164 39 177 l4
22 -181 0 c-106 0 -181 -4 -181 -9z m312 -39 c8 -8 8 -15 0 -25 -7 -8 -9 -17
-6 -20 4 -4 2 -26 -4 -49 -6 -24 -17 -68 -23 -98 -7 -30 -15 -58 -19 -62 -3
-5 -35 -10 -70 -13 -39 -4 -71 -12 -82 -22 -10 -9 -18 -12 -19 -7 -3 22 4 70
12 92 21 54 21 116 -1 157 -11 21 -20 42 -20 46 0 18 215 18 232 1z m-154
-398 l60 -70 -9 -50 c-6 -27 -13 -56 -16 -64 -4 -8 -7 -26 -9 -40 -1 -14 -11
-66 -22 -117 -24 -111 -41 -134 -97 -129 -22 2 -54 4 -71 5 l-32 1 13 63 c7
34 18 91 24 127 7 36 17 81 21 100 5 19 18 80 31 135 24 109 27 118 38 113 5
-2 35 -35 69 -74z"/>
<path fill="teal" d="M1933 2063 l53 -68 -23 -105 c-13 -58 -25 -114 -28 -125 -4 -19 -11
-20 -141 -17 l-137 4 88 -96 c81 -88 90 -94 118 -89 33 7 33 5 11 -83 l-7 -28
31 22 c16 12 34 22 39 22 4 0 19 9 33 20 l25 20 -37 -15 -37 -15 -9 32 c-6 25
-19 38 -53 56 -24 13 -53 36 -64 52 -11 16 -22 27 -26 24 -4 -2 -9 5 -12 16
-3 11 0 21 6 22 26 3 55 5 114 7 58 1 64 3 77 30 8 15 17 39 20 52 3 13 13 62
23 108 l17 85 -27 47 c-31 57 -33 56 111 51 96 -4 102 -5 102 -25 0 -26 -24
-147 -56 -287 -13 -58 -29 -124 -34 -148 -13 -53 -13 -72 0 -72 13 0 32 69 75
275 20 94 43 195 51 226 7 31 14 60 14 63 0 3 -83 6 -185 6 l-186 0 54 -67z"/>
<path fill="coral" d="M2112 1533 c-17 -30 -35 -66 -38 -79 -5 -19 -27 -36 -94 -69 -59 -29
-91 -40 -97 -34 -6 6 -18 12 -28 13 -10 1 -26 18 -36 37 l-18 34 -1 -38 c0
-24 8 -50 21 -68 23 -33 39 -37 39 -11 0 15 6 18 30 14 18 -3 38 2 48 10 9 8
39 27 66 43 l49 28 -6 -44 c-8 -58 -11 -72 -20 -86 -5 -8 11 -32 45 -65 29
-29 44 -45 32 -35 -11 9 -35 17 -52 17 -17 0 -42 4 -57 10 -17 7 -24 7 -20 0
3 -5 23 -13 44 -16 69 -11 146 -84 178 -169 12 -34 16 45 4 87 -12 38 -101
128 -127 128 -18 0 -18 7 8 125 15 69 28 108 44 125 25 27 42 84 28 93 -5 3
-24 -20 -42 -50z"/>
<path d="M1941 1442 c-52 -25 -89 -48 -83 -50 12 -4 168 73 177 88 8 13 14 16
-94 -38z"/>
<path d="M1776 1355 c-11 -29 -7 -51 18 -87 16 -24 22 -44 19 -62 -5 -25 -4
-26 47 -26 55 0 98 -20 194 -89 54 -38 106 -112 106 -149 0 -13 4 -20 10 -17
19 12 11 98 -13 140 -30 53 -103 108 -133 101 -14 -4 -44 5 -81 23 -32 16 -65
32 -73 34 -9 3 -21 17 -29 33 -7 16 -17 36 -22 44 -5 8 -15 28 -23 44 -11 23
-14 25 -20 11z"/>
<path fill="gold"  d="M913 1083 c-20 -7 -17 -103 2 -103 9 0 15 10 16 23 0 19 2 18 11 -7
l11 -29 13 24 c10 19 13 20 14 7 0 -10 7 -18 16 -18 12 0 14 10 12 52 -3 59
-22 74 -39 31 l-12 -28 -10 28 c-11 28 -13 29 -34 20z"/>
<path fill="gold"  d="M1040 1070 c-22 -22 -26 -60 -8 -78 19 -19 55 -14 72 10 43 61 -13
119 -64 68z m48 -37 c-2 -10 -10 -18 -18 -18 -8 0 -16 8 -18 18 -2 12 3 17 18
17 15 0 20 -5 18 -17z"/>
<path fill="gold" d="M1163 1083 c-33 -4 -33 -5 -33 -60 0 -46 3 -54 16 -49 9 3 24 6 35 6
11 0 19 7 19 16 0 11 -6 14 -20 9 -11 -4 -20 -2 -20 4 0 6 9 11 20 11 11 0 20
5 20 10 0 6 -9 10 -20 10 -11 0 -20 5 -20 10 0 6 9 10 20 10 11 0 20 7 20 15
0 8 -1 14 -2 13 -2 0 -18 -3 -35 -5z"/>
<path fill="gold" d="M1243 1083 c-33 -4 -33 -5 -33 -57 l0 -52 35 4 c22 3 35 10 35 19 0
10 -6 12 -20 8 -11 -4 -20 -2 -20 4 0 6 9 11 20 11 11 0 20 5 20 10 0 6 -9 10
-20 10 -11 0 -20 5 -20 10 0 6 9 10 20 10 11 0 20 7 20 15 0 8 -1 14 -2 13 -2
0 -18 -3 -35 -5z"/>
<path fill="gold" d="M1587 1083 c-2 -4 -7 -21 -11 -38 -4 -16 -9 -37 -12 -46 -4 -14 3
-16 43 -14 27 1 49 3 50 4 0 0 -7 22 -17 49 -16 43 -42 65 -53 45z"/>
<path fill="gold" d="M1674 1076 c-4 -11 0 -22 11 -30 17 -12 17 -14 1 -38 -15 -22 -15
-26 -2 -31 19 -7 80 99 64 110 -6 3 -16 -1 -23 -10 -11 -15 -13 -15 -28 0 -15
15 -17 15 -23 -1z"/>
<path fill="gold" d="M1777 1083 c-4 -3 -7 -28 -7 -55 0 -44 2 -48 23 -48 45 0 76 67 45
98 -13 13 -50 16 -61 5z m40 -57 c-4 -9 -11 -16 -17 -16 -11 0 -14 33 -3 44
11 10 26 -11 20 -28z"/>
<path fill="gold" d="M1893 1083 c-33 -4 -33 -5 -33 -57 l0 -52 35 4 c22 3 35 10 35 19 0
10 -6 12 -20 8 -11 -4 -20 -2 -20 4 0 6 9 11 20 11 11 0 20 5 20 10 0 6 -9 10
-20 10 -11 0 -20 5 -20 10 0 6 9 10 20 10 11 0 20 7 20 15 0 8 -1 14 -2 13 -2
0 -18 -3 -35 -5z"/>
<path fill="gold" d="M1290 1065 c0 -9 9 -15 21 -15 l20 0 -20 -26 c-28 -36 -28 -58 2 -50
12 3 32 6 45 6 13 0 22 6 22 16 0 11 -6 15 -20 11 -11 -3 -20 -2 -20 2 0 5 9
16 20 26 33 30 25 45 -25 45 -33 0 -45 -4 -45 -15z"/>
<path fill="gold" d="M1470 1025 c0 -42 3 -55 15 -55 8 0 15 9 15 20 0 11 5 20 10 20 6 0
10 -7 10 -15 0 -8 7 -15 15 -15 11 0 15 12 15 50 0 38 -4 50 -15 50 -9 0 -15
-9 -15 -25 0 -14 -4 -25 -10 -25 -5 0 -10 11 -10 25 0 16 -6 25 -15 25 -12 0
-15 -13 -15 -55z"/>
<path fill="gold" d="M1940 1025 c0 -56 10 -69 30 -37 9 16 11 16 20 0 6 -10 17 -15 26
-11 11 4 12 9 3 19 -7 9 -7 19 -1 31 17 29 -3 53 -43 53 l-35 0 0 -55z"/>
</g>
</svg>

